# xmcd CD database file
#
# Track frame offsets:
#	150
#	24410
#	48202
#	68290
#
# Disc length: 1231 seconds
#
# Revision: 4
# Processed by: cddbd v1.5.1PL0 Copyright (c) Steve Scherf et al.
# Submitted via: CDex 1.51
#
DISCID=2204cd04
DTITLE=S.E.S - (愛) という名の誇り
DYEAR=1999
DGENRE=JPop
TTITLE0=(愛) という名の誇り (Single Version)
TTITLE1=unh〜HAPPY DAY
TTITLE2=Shining Star
TTITLE3=(愛) という名の誇り (Instrumental)
EXTD=YEAR: 1999
EXTT0=
EXTT1=
EXTT2=
EXTT3=
PLAYORDER=
